<?xml version="1.0" standalone="no"?><!DOCTYPE svg PUBLIC "-//W3C//DTD SVG 1.1//EN" "http://www.w3.org/Graphics/SVG/1.1/DTD/svg11.dtd"><svg class="icon" width="200px" height="200.00px" viewBox="0 0 1024 1024" version="1.1" xmlns="http://www.w3.org/2000/svg"><path fill="#333333" d="M591.36 465.92c-10.24 0-20.48-7.68-23.04-17.92-5.12-12.8 2.56-28.16 15.36-33.28l176.64-58.88L698.88 179.2c-5.12-12.8 2.56-28.16 15.36-33.28 12.8-5.12 28.16 2.56 33.28 15.36l69.12 202.24c2.56 7.68 2.56 12.8-2.56 20.48-2.56 5.12-7.68 10.24-15.36 12.8l-202.24 69.12h-5.12z"  /><path fill="#333333" d="M537.6 921.6c-51.2 0-99.84-10.24-148.48-33.28-166.4-81.92-235.52-284.16-153.6-450.56 81.92-166.4 284.16-235.52 450.56-153.6 40.96 20.48 76.8 48.64 104.96 81.92 10.24 10.24 7.68 28.16-2.56 35.84-10.24 10.24-28.16 7.68-35.84-2.56-25.6-28.16-56.32-51.2-89.6-69.12-140.8-69.12-312.32-12.8-384 130.56-69.12 140.8-12.8 312.32 130.56 384 125.44 61.44 281.6 23.04 360.96-92.16 7.68-12.8 23.04-15.36 35.84-5.12 12.8 7.68 15.36 23.04 5.12 35.84C752.64 870.4 647.68 921.6 537.6 921.6z"  /></svg>