<?xml version="1.0" standalone="no"?><!DOCTYPE svg PUBLIC "-//W3C//DTD SVG 1.1//EN" "http://www.w3.org/Graphics/SVG/1.1/DTD/svg11.dtd"><svg class="icon" width="200px" height="200.00px" viewBox="0 0 1024 1024" version="1.1" xmlns="http://www.w3.org/2000/svg"><path fill="#333333" d="M880.64 683.52c-5.12 0-12.8-2.56-17.92-7.68l-212.48-199.68c-10.24-10.24-10.24-23.04 0-33.28s25.6-10.24 35.84 0l212.48 199.68c10.24 10.24 10.24 23.04 0 33.28-5.12 5.12-10.24 7.68-17.92 7.68z"  /><path fill="#333333" d="M670.72 683.52c-5.12 0-12.8-2.56-17.92-7.68-10.24-10.24-10.24-23.04 0-33.28l212.48-199.68c10.24-10.24 25.6-10.24 35.84 0 10.24 10.24 10.24 23.04 0 33.28l-212.48 199.68c-5.12 5.12-12.8 7.68-17.92 7.68zM312.32 719.36c-5.12 0-7.68 0-12.8-2.56l-33.28-17.92H156.16c-12.8 0-25.6-10.24-25.6-23.04v-253.44c0-12.8 10.24-23.04 25.6-23.04h112.64l33.28-17.92c12.8-7.68 28.16-2.56 33.28 7.68 7.68 10.24 2.56 25.6-10.24 33.28l-38.4 20.48c-2.56 2.56-7.68 2.56-12.8 2.56H181.76v204.8h92.16c5.12 0 7.68 0 12.8 2.56l38.4 20.48c12.8 7.68 15.36 20.48 10.24 33.28-5.12 10.24-12.8 12.8-23.04 12.8z"  /><path fill="#333333" d="M537.6 842.24c-5.12 0-7.68 0-12.8-2.56l-245.76-135.68 25.6-40.96 209.92 115.2V320L304.64 435.2l-25.6-40.96 245.76-135.68c7.68-5.12 17.92-5.12 25.6 0 7.68 5.12 12.8 12.8 12.8 20.48V819.2c0 7.68-5.12 15.36-12.8 20.48-5.12 2.56-7.68 2.56-12.8 2.56z"  /></svg>