<?xml version="1.0" standalone="no"?><!DOCTYPE svg PUBLIC "-//W3C//DTD SVG 1.1//EN" "http://www.w3.org/Graphics/SVG/1.1/DTD/svg11.dtd"><svg class="icon" width="200px" height="200.00px" viewBox="0 0 1024 1024" version="1.1" xmlns="http://www.w3.org/2000/svg"><path fill="#333333" d="M826.88 552.96H181.76c-12.8 0-23.04-10.24-23.04-23.04s10.24-23.04 23.04-23.04h645.12c12.8 0 23.04 10.24 23.04 23.04s-10.24 23.04-23.04 23.04z"  /><path fill="#333333" d="M665.6 734.72c-5.12 0-10.24-2.56-15.36-7.68-7.68-7.68-7.68-23.04 0-30.72l161.28-161.28-161.28-161.28c-7.68-7.68-7.68-23.04 0-30.72 7.68-7.68 23.04-7.68 30.72 0l176.64 176.64c5.12 5.12 7.68 10.24 7.68 15.36s-2.56 10.24-7.68 15.36l-176.64 176.64c-5.12 5.12-10.24 7.68-15.36 7.68z"  /></svg>