<?xml version="1.0" standalone="no"?><!DOCTYPE svg PUBLIC "-//W3C//DTD SVG 1.1//EN" "http://www.w3.org/Graphics/SVG/1.1/DTD/svg11.dtd"><svg class="icon" width="200px" height="200.00px" viewBox="0 0 1024 1024" version="1.1" xmlns="http://www.w3.org/2000/svg"><path fill="#333333" d="M629.76 814.08l-404.48-5.12c-51.2 0-92.16-40.96-92.16-94.72V396.8c0-51.2 40.96-94.72 94.72-94.72h563.2c51.2 0 94.72 40.96 94.72 94.72v335.36h-51.2V396.8c0-23.04-17.92-43.52-43.52-43.52h-563.2c-23.04 0-43.52 17.92-43.52 43.52v317.44c0 23.04 17.92 43.52 43.52 43.52l404.48 5.12-2.56 51.2z"  /><path fill="#333333" d="M718.2848 503.5264l155.4688 196.9152-40.192 31.744-155.4688-196.9408zM591.36 796.16L330.24 496.64l-153.6 161.28-35.84-35.84 192-199.68 296.96 340.48z"  /><path fill="#333333" d="M697.9072 517.1456l28.8256 42.3168-190.4128 129.7408-28.8256-42.3168z"  /></svg>