<?xml version="1.0" standalone="no"?><!DOCTYPE svg PUBLIC "-//W3C//DTD SVG 1.1//EN" "http://www.w3.org/Graphics/SVG/1.1/DTD/svg11.dtd"><svg class="icon" width="200px" height="200.00px" viewBox="0 0 1024 1024" version="1.1" xmlns="http://www.w3.org/2000/svg"><path fill="#333333" d="M537.6 675.84c-30.72 0-58.88-12.8-81.92-33.28s-33.28-51.2-33.28-81.92 12.8-58.88 33.28-81.92c23.04-23.04 51.2-33.28 81.92-33.28s58.88 12.8 81.92 33.28c46.08 46.08 46.08 117.76 0 163.84-23.04 20.48-51.2 33.28-81.92 33.28z m0-181.76c-17.92 0-33.28 7.68-46.08 17.92-12.8 12.8-17.92 28.16-17.92 46.08s7.68 33.28 17.92 46.08c25.6 25.6 66.56 25.6 92.16 0s25.6-66.56 0-92.16c-12.8-10.24-28.16-17.92-46.08-17.92z"  /><path fill="#333333" d="M537.6 903.68c-15.36 0-30.72 0-46.08-2.56-12.8-2.56-23.04-15.36-23.04-28.16 2.56-12.8 0-28.16-2.56-40.96-12.8-46.08-53.76-79.36-102.4-79.36-10.24 0-17.92 0-28.16 2.56-12.8 2.56-25.6 10.24-35.84 17.92-10.24 7.68-28.16 7.68-35.84-5.12-17.92-23.04-33.28-51.2-46.08-79.36-5.12-12.8 0-28.16 12.8-33.28 12.8-5.12 25.6-12.8 33.28-23.04 20.48-20.48 30.72-46.08 30.72-76.8 0-28.16-10.24-56.32-30.72-76.8-7.68-5.12-17.92-12.8-30.72-17.92-12.8-5.12-17.92-20.48-12.8-33.28 12.8-28.16 25.6-53.76 46.08-79.36 7.68-10.24 25.6-12.8 35.84-5.12 10.24 7.68 23.04 15.36 35.84 17.92 10.24 2.56 17.92 2.56 28.16 2.56 48.64 0 89.6-33.28 102.4-79.36 2.56-12.8 5.12-28.16 2.56-40.96s7.68-25.6 23.04-28.16c30.72-5.12 61.44-5.12 89.6 0 12.8 2.56 23.04 15.36 23.04 28.16-2.56 12.8 0 28.16 2.56 40.96 12.8 46.08 53.76 79.36 102.4 79.36 10.24 0 17.92 0 28.16-2.56 12.8-2.56 25.6-10.24 35.84-17.92 10.24-7.68 28.16-7.68 35.84 5.12 17.92 23.04 33.28 51.2 46.08 79.36 5.12 12.8 0 28.16-12.8 33.28-12.8 5.12-25.6 12.8-33.28 23.04-20.48 20.48-30.72 46.08-30.72 76.8 0 28.16 10.24 56.32 30.72 76.8 10.24 10.24 20.48 17.92 33.28 23.04 12.8 5.12 17.92 20.48 12.8 33.28-10.24 28.16-25.6 53.76-46.08 79.36-7.68 10.24-25.6 12.8-35.84 5.12-10.24-7.68-23.04-15.36-35.84-17.92-10.24-2.56-17.92-2.56-28.16-2.56-48.64 0-89.6 33.28-102.4 79.36-2.56 12.8-5.12 28.16-2.56 40.96s-7.68 25.6-23.04 28.16c-15.36-2.56-30.72-2.56-46.08-2.56z m-15.36-51.2h30.72c0-12.8 2.56-23.04 5.12-33.28 17.92-69.12 81.92-117.76 153.6-117.76 12.8 0 28.16 2.56 40.96 5.12 10.24 2.56 23.04 7.68 33.28 12.8 5.12-7.68 10.24-17.92 15.36-25.6-10.24-5.12-17.92-12.8-28.16-23.04-30.72-30.72-46.08-69.12-46.08-112.64 0-43.52 15.36-81.92 46.08-112.64 7.68-7.68 17.92-15.36 28.16-23.04-5.12-10.24-10.24-17.92-15.36-25.6-10.24 5.12-20.48 10.24-33.28 12.8-12.8 2.56-28.16 5.12-40.96 5.12-71.68 0-133.12-48.64-153.6-117.76-2.56-10.24-5.12-23.04-5.12-33.28h-30.72c0 12.8-2.56 23.04-5.12 33.28-17.92 69.12-81.92 117.76-153.6 117.76-12.8 0-28.16-2.56-40.96-5.12-10.24-2.56-23.04-7.68-33.28-12.8-5.12 7.68-10.24 17.92-15.36 25.6 10.24 5.12 17.92 12.8 28.16 23.04 30.72 30.72 46.08 69.12 46.08 112.64 0 43.52-15.36 81.92-46.08 112.64-7.68 7.68-17.92 15.36-28.16 23.04 5.12 10.24 10.24 17.92 15.36 25.6 10.24-5.12 20.48-10.24 33.28-12.8 12.8-2.56 28.16-5.12 40.96-5.12 71.68 0 133.12 48.64 153.6 117.76 2.56 10.24 5.12 23.04 5.12 33.28z"  /></svg>