<?xml version="1.0" standalone="no"?><!DOCTYPE svg PUBLIC "-//W3C//DTD SVG 1.1//EN" "http://www.w3.org/Graphics/SVG/1.1/DTD/svg11.dtd"><svg class="icon" width="200px" height="200.00px" viewBox="0 0 1024 1024" version="1.1" xmlns="http://www.w3.org/2000/svg"><path fill="#333333" d="M826.88 286.72H197.12c-12.8 0-20.48-10.24-20.48-20.48 0-12.8 10.24-20.48 20.48-20.48h629.76c12.8 0 20.48 10.24 20.48 20.48s-10.24 20.48-20.48 20.48zM826.88 532.48H197.12c-12.8 0-20.48-10.24-20.48-20.48s10.24-20.48 20.48-20.48h629.76c12.8 0 20.48 10.24 20.48 20.48s-10.24 20.48-20.48 20.48zM826.88 780.8H197.12c-12.8 0-20.48-10.24-20.48-20.48s10.24-20.48 20.48-20.48h629.76c12.8 0 20.48 10.24 20.48 20.48s-10.24 20.48-20.48 20.48z"  /></svg>