<?xml version="1.0" standalone="no"?><!DOCTYPE svg PUBLIC "-//W3C//DTD SVG 1.1//EN" "http://www.w3.org/Graphics/SVG/1.1/DTD/svg11.dtd"><svg class="icon" width="200px" height="200.00px" viewBox="0 0 1024 1024" version="1.1" xmlns="http://www.w3.org/2000/svg"><path fill="#333333" d="M808.96 312.32H294.4c-12.8 0-20.48-10.24-20.48-20.48 0-12.8 10.24-20.48 20.48-20.48h514.56c12.8 0 20.48 10.24 20.48 20.48s-7.68 20.48-20.48 20.48zM204.8 312.32h-5.12c-12.8 0-20.48-10.24-20.48-20.48 0-12.8 10.24-20.48 20.48-20.48H204.8c12.8 0 20.48 10.24 20.48 20.48s-7.68 20.48-20.48 20.48zM207.36 558.08h-5.12c-12.8 0-20.48-10.24-20.48-20.48 0-12.8 10.24-20.48 20.48-20.48h5.12c12.8 0 20.48 10.24 20.48 20.48 0 12.8-10.24 20.48-20.48 20.48zM209.92 806.4H204.8c-12.8 0-20.48-10.24-20.48-20.48 0-12.8 10.24-20.48 20.48-20.48h5.12c12.8 0 20.48 10.24 20.48 20.48s-10.24 20.48-20.48 20.48zM808.96 558.08H294.4c-12.8 0-20.48-10.24-20.48-20.48 0-12.8 10.24-20.48 20.48-20.48h514.56c12.8 0 20.48 10.24 20.48 20.48 0 12.8-7.68 20.48-20.48 20.48zM808.96 806.4H294.4c-12.8 0-20.48-10.24-20.48-20.48 0-12.8 10.24-20.48 20.48-20.48h514.56c12.8 0 20.48 10.24 20.48 20.48s-7.68 20.48-20.48 20.48z"  /></svg>