<?xml version="1.0" standalone="no"?><!DOCTYPE svg PUBLIC "-//W3C//DTD SVG 1.1//EN" "http://www.w3.org/Graphics/SVG/1.1/DTD/svg11.dtd"><svg class="icon" width="200px" height="200.00px" viewBox="0 0 1024 1024" version="1.1" xmlns="http://www.w3.org/2000/svg"><path fill="#333333" d="M360.96 407.04H358.4c-17.92 0-30.72-12.8-30.72-30.72s12.8-30.72 30.72-30.72h2.56c17.92 0 30.72 12.8 30.72 30.72s-12.8 30.72-30.72 30.72z"  /><path fill="#333333" d="M829.44 837.12H194.56V204.8h632.32v632.32zM238.08 793.6h545.28V248.32H238.08V793.6z"  /><path fill="#333333" d="M512 552.96h-7.68c-35.84-12.8-46.08-28.16-51.2-46.08-5.12-10.24-7.68-17.92-23.04-30.72-20.48-15.36-30.72-7.68-61.44 23.04-7.68 7.68-15.36 15.36-25.6 23.04-46.08 35.84-122.88 33.28-125.44 33.28-12.8 0-20.48-10.24-20.48-23.04s12.8-20.48 23.04-20.48c17.92 0 69.12 0 94.72-23.04 7.68-7.68 15.36-12.8 23.04-20.48 28.16-25.6 64-64 117.76-28.16 28.16 17.92 35.84 35.84 40.96 48.64 5.12 10.24 5.12 15.36 25.6 20.48 12.8 2.56 17.92 15.36 12.8 28.16-5.12 10.24-12.8 15.36-23.04 15.36z"  /><path fill="#333333" d="M440.32 616.96c-7.68 0-15.36-2.56-17.92-10.24-7.68-10.24-5.12-23.04 5.12-30.72 61.44-40.96 181.76-120.32 202.24-138.24 33.28-25.6 97.28-43.52 133.12-25.6 33.28 15.36 56.32 61.44 58.88 66.56 5.12 10.24 2.56 23.04-10.24 30.72-10.24 5.12-23.04 2.56-30.72-10.24-7.68-15.36-25.6-40.96-40.96-46.08-17.92-7.68-61.44 0-87.04 20.48-30.72 23.04-199.68 138.24-207.36 140.8 2.56 2.56 0 2.56-5.12 2.56z"  /></svg>