<?xml version="1.0" standalone="no"?><!DOCTYPE svg PUBLIC "-//W3C//DTD SVG 1.1//EN" "http://www.w3.org/Graphics/SVG/1.1/DTD/svg11.dtd"><svg class="icon" width="200px" height="200.00px" viewBox="0 0 1024 1024" version="1.1" xmlns="http://www.w3.org/2000/svg"><path fill="#333333" d="M719.36 878.08H197.12c-15.36 0-25.6-10.24-25.6-25.6V332.8c0-15.36 10.24-25.6 25.6-25.6h381.44v51.2H222.72v468.48H691.2V481.28h51.2v371.2c2.56 15.36-10.24 25.6-23.04 25.6z"  /><path fill="#333333" d="M437.76 747.52h-110.08c-15.36 0-25.6-10.24-25.6-25.6v-110.08c0-7.68 2.56-12.8 7.68-17.92l409.6-409.6C739.84 163.84 768 153.6 793.6 153.6c28.16 0 53.76 10.24 71.68 30.72 20.48 17.92 30.72 43.52 30.72 71.68 0 28.16-10.24 53.76-30.72 71.68l-409.6 409.6c-5.12 7.68-10.24 10.24-17.92 10.24z m-81.92-51.2h71.68l404.48-404.48c10.24-10.24 15.36-23.04 15.36-35.84 0-12.8-5.12-25.6-15.36-35.84-20.48-20.48-53.76-20.48-71.68 0L355.84 622.08v74.24z"  /><path fill="#333333" d="M755.2 368.64c-7.68 0-12.8-2.56-17.92-7.68L691.2 314.88c-10.24-10.24-10.24-25.6 0-35.84s25.6-10.24 35.84 0l46.08 46.08c10.24 10.24 10.24 25.6 0 35.84-5.12 5.12-10.24 7.68-17.92 7.68z"  /></svg>