<?xml version="1.0" standalone="no"?><!DOCTYPE svg PUBLIC "-//W3C//DTD SVG 1.1//EN" "http://www.w3.org/Graphics/SVG/1.1/DTD/svg11.dtd"><svg class="icon" width="200px" height="200.00px" viewBox="0 0 1024 1024" version="1.1" xmlns="http://www.w3.org/2000/svg"><path fill="#333333" d="M514.56 693.76h-5.12c-69.12 0-125.44-56.32-125.44-125.44V304.64C384 235.52 440.32 179.2 509.44 179.2h5.12c69.12 0 125.44 56.32 125.44 125.44v263.68c0 69.12-56.32 125.44-125.44 125.44zM509.44 230.4c-40.96 0-74.24 33.28-74.24 74.24v263.68c0 40.96 33.28 74.24 74.24 74.24h5.12c40.96 0 74.24-33.28 74.24-74.24V304.64c0-40.96-33.28-74.24-74.24-74.24h-5.12z"  /><path fill="#333333" d="M512 783.36c-130.56 0-238.08-102.4-238.08-227.84v-112.64c0-15.36 10.24-25.6 25.6-25.6s25.6 10.24 25.6 25.6v112.64c0 97.28 84.48 176.64 186.88 176.64s186.88-79.36 186.88-176.64v-122.88c0-15.36 10.24-25.6 25.6-25.6s25.6 10.24 25.6 25.6v122.88c0 125.44-107.52 227.84-238.08 227.84z"  /><path fill="#333333" d="M512 896c-15.36 0-25.6-10.24-25.6-25.6v-112.64c0-15.36 10.24-25.6 25.6-25.6s25.6 10.24 25.6 25.6V870.4c0 12.8-10.24 25.6-25.6 25.6z"  /><path fill="#333333" d="M645.12 896H376.32c-15.36 0-25.6-10.24-25.6-25.6s10.24-25.6 25.6-25.6h268.8c15.36 0 25.6 10.24 25.6 25.6s-12.8 25.6-25.6 25.6z"  /></svg>